<?xml version="1.0" encoding="UTF-8"?>
<svg id="Capa_2" data-name="Capa 2" xmlns="http://www.w3.org/2000/svg" viewBox="0 0 64 64">
  <defs>
    <style>
      .cls-1 {
        fill: #fff;
      }

      .cls-2 {
        fill: none;
      }
    </style>
  </defs>
  <g id="Capa_1-2" data-name="Capa 1">
    <g>
      <g>
        <path class="cls-1" d="M16.46,35.34c0-4.83,0-9.66,0-14.5,0-1.82,.64-2.76,2.36-3.33,6.56-2.18,13.13-4.34,19.71-6.48,2.22-.72,4.06,.64,4.08,2.98,.01,1.26,.03,2.53,0,3.79-.02,.6,.18,.85,.8,.82,.6-.02,1.2-.06,1.8,.09,1.42,.37,2.34,1.44,2.34,2.9,.01,9.53,.02,19.06,0,28.58,0,1.73-1.27,2.95-2.99,2.95-8.35,0-16.69,0-25.04,0-1.83,0-3.04-1.25-3.04-3.15-.01-4.89,0-9.77,0-14.66Zm2.7,.53c0,4.53,0,9.06,0,13.59,0,1.06,.04,1.1,1.13,1.1,7.82,0,15.65,0,23.47,0,1.03,0,1.08-.05,1.08-1.06,0-9.06,0-18.12,.02-27.18,0-.82-.3-1.01-1.06-1.01-7.85,.02-15.7,.01-23.55,.01-1.07,0-1.08,.01-1.08,1.12,0,4.47,0,8.95,0,13.42Zm5.18-17.36c.15,.06,.19,.1,.24,.1,4.86,0,9.71,0,14.57,.01,.59,0,.76-.26,.75-.8-.02-1.12,0-2.25,0-3.37,0-1.01-.06-1.04-1.05-.72-4.14,1.36-8.28,2.73-12.42,4.09-.67,.22-1.33,.44-2.08,.69Z"/>
        <path class="cls-1" d="M31.95,35.64c-2.44,0-4.89,0-7.33,0-.35,0-.71-.02-1.06-.09-.68-.12-1.07-.58-1.11-1.25-.04-.65,.33-1.13,.95-1.28,.48-.12,.67-.35,.8-.79,.88-2.96,2.78-4.92,5.78-5.77,.41-.11,.66-.27,.71-.75,.08-.74,.53-1.21,1.29-1.27,.67-.05,1.23,.44,1.35,1.29,.07,.49,.33,.63,.72,.74,3,.85,4.89,2.81,5.77,5.78,.12,.4,.27,.65,.73,.76,.66,.15,1.06,.63,1.01,1.32-.05,.71-.49,1.15-1.21,1.26-.32,.05-.66,.06-.98,.06-2.47,0-4.94,0-7.41,0Zm.04-2.7c1.51,0,3.01-.02,4.52,0,.6,.01,.71-.18,.5-.72-.75-1.95-2.75-3.31-4.95-3.32-2.26-.01-4.27,1.31-5.06,3.29-.24,.61-.06,.76,.55,.75,1.48-.03,2.96,0,4.44,0Z"/>
        <path class="cls-1" d="M31.96,46.38c-2.5,0-5,0-7.49,0-.51,0-.99-.07-1.36-.46-.66-.71-.38-1.8,.55-2.15,.35-.13,.7-.11,1.06-.11,4.86,0,9.72,0,14.58,0,.14,0,.27,0,.41,0,.95,.04,1.56,.57,1.56,1.35,0,.78-.61,1.34-1.56,1.35-2.58,.02-5.16,0-7.74,0Z"/>
        <path class="cls-1" d="M27.18,41.43c-.9,0-1.81,.02-2.71,0-.95-.02-1.56-.57-1.56-1.34,0-.78,.61-1.34,1.55-1.35,1.81-.02,3.62-.02,5.43,0,.99,.01,1.64,.6,1.61,1.38-.03,.76-.65,1.29-1.6,1.31-.9,.02-1.81,0-2.71,0Z"/>
      </g>
      <rect class="cls-2" width="64" height="64"/>
    </g>
  </g>
</svg>