<?xml version="1.0" encoding="UTF-8"?>
<svg id="Capa_2" data-name="Capa 2" xmlns="http://www.w3.org/2000/svg" viewBox="0 0 64 64">
  <defs>
    <style>
      .cls-1 {
        fill: #fff;
      }

      .cls-2 {
        fill: none;
      }
    </style>
  </defs>
  <g id="Capa_1-2" data-name="Capa 1">
    <g>
      <g>
        <path class="cls-1" d="M31.96,53.35c-7.15,0-14.31,0-21.46,0-1.79,0-2.04-.26-2.04-2.08,0-6.08,.01-12.17-.01-18.25,0-.95,.14-1.71,1.23-1.92,.48-.1,.48-.49,.48-.86,0-1.25,0-2.51,0-3.76,.02-1.77,.49-3.39,1.75-4.69,1.03-1.06,1.42-2.3,1.38-3.75-.05-1.8-.03-3.61,0-5.41,.02-1.56,.44-1.95,1.96-1.96,.89,0,1.77,0,2.66,0,1.65,0,2.02,.38,2.03,2.07,0,1.86,.02,3.73,0,5.59-.02,1.26,.38,2.34,1.24,3.25,1.34,1.44,1.96,3.13,1.9,5.1-.04,1.16,.02,2.32-.02,3.48-.02,.67,.22,.97,.9,.91,.27-.02,.55-.02,.82,0,.56,.03,.75-.25,.74-.79-.02-1.34,0-2.69,0-4.04-.02-1.71,.54-3.21,1.72-4.41,1.16-1.18,1.58-2.57,1.57-4.16,0-1.83-.01-3.67,0-5.5,0-1.1,.4-1.49,1.49-1.51,1.16-.02,2.32-.02,3.48,0,.98,.02,1.39,.43,1.4,1.42,.02,1.86,.02,3.73,0,5.59-.01,1.59,.42,2.98,1.58,4.15,1.17,1.17,1.72,2.65,1.71,4.32,0,1.31,.03,2.63-.01,3.94-.02,.69,.19,.99,.93,.99,1.54,0,1.54,.03,1.54-1.47,0-1.13,0-2.26,0-3.39-.02-1.67,.51-3.14,1.65-4.35,1.07-1.14,1.55-2.42,1.49-3.99-.07-1.8-.02-3.61-.01-5.41,0-1.36,.46-1.8,1.83-1.81,.98,0,1.96,0,2.93,0,1.42,0,1.86,.41,1.88,1.85,.03,1.65,.08,3.3,0,4.95-.09,1.78,.36,3.29,1.62,4.59,1.14,1.18,1.49,2.71,1.52,4.31,.02,1.25,.02,2.51,0,3.76-.01,.57,.14,.92,.75,1.06,.7,.16,.97,.67,.97,1.36,0,6.45,0,12.9,0,19.35,0,1.08-.46,1.44-1.76,1.44-7.28,0-14.55,0-21.83,0Zm.05-12.41c6.66,0,13.32-.01,19.98,.02,.83,0,1.14-.23,1.12-1.09-.05-1.77-.04-3.54,0-5.32,.01-.72-.19-1.03-.98-1.03-13.41,.02-26.83,.02-40.24,0-.8,0-.99,.32-.97,1.04,.03,1.71,0,3.42,.01,5.13,0,1.24,0,1.25,1.29,1.25,6.6,0,13.2,0,19.8,0Zm.09,2.49c-6.7,0-13.39,.01-20.09-.02-.84,0-1.14,.25-1.11,1.1,.05,1.8,.04,3.61,0,5.41-.01,.72,.26,.98,.97,.96,1.28-.04,2.57,0,3.85,0,12.05,0,24.09,0,36.14,0,1.22,0,1.23-.02,1.23-1.22,0-1.68-.05-3.36,.02-5.04,.04-.94-.29-1.2-1.21-1.19-6.6,.03-13.21,.02-19.81,.02Zm-15.49-15.94c-1.04,0-2.08,.02-3.11,0-.61-.02-.92,.16-.88,.82,.04,.64,.04,1.28,0,1.92-.04,.65,.25,.86,.86,.85,2.07-.02,4.15-.02,6.22,0,.61,0,.91-.19,.88-.84-.03-.64-.03-1.28,0-1.92,.04-.65-.25-.85-.87-.83-1.04,.03-2.07,0-3.11,0Zm15.39,0c-1.07,0-2.14,.02-3.21,0-.54-.01-.8,.18-.78,.74,.02,.67,.02,1.35,0,2.02-.02,.57,.2,.84,.8,.83,2.14-.02,4.28-.02,6.42,0,.61,0,.8-.29,.78-.85-.02-.61-.03-1.22,0-1.83,.04-.67-.2-.94-.89-.91-1.04,.04-2.08,.01-3.12,.01Zm15.42,0c-1.04,0-2.08,.02-3.11,0-.61-.02-.92,.16-.88,.82,.04,.64,.03,1.28,0,1.92-.03,.64,.25,.86,.87,.85,2.07-.02,4.15-.02,6.22,0,.61,0,.91-.19,.87-.84-.04-.64-.04-1.28,0-1.92,.04-.65-.25-.85-.86-.83-1.04,.03-2.07,0-3.11,0Zm-30.82-2.46c.7,0,1.41,.04,2.11-.01,.52-.04,1.29,.31,1.51-.24,.22-.53-.41-1.04-.79-1.45-1.21-1.31-1.9-2.84-1.95-4.62-.02-.7-.37-.78-.93-.79-.59,0-.82,.21-.81,.81,.03,1.78-.7,3.25-1.87,4.55-.26,.29-.52,.6-.74,.93-.35,.52-.29,.84,.44,.83,1.01-.02,2.02,0,3.02,0Zm30.81,0c.7,0,1.41,.04,2.11-.01,.52-.04,1.29,.31,1.51-.23,.22-.53-.42-1.01-.81-1.44-1.17-1.28-1.94-2.74-1.94-4.52,0-.58-.11-.92-.8-.91-.64,0-.92,.17-.95,.87-.06,1.64-.65,3.09-1.76,4.32-.31,.34-.58,.71-.83,1.09-.35,.52-.28,.85,.45,.83,1.01-.02,2.02,0,3.03,0Zm-15.42,0c.76,0,1.53,.02,2.29,0,.47-.02,1.14,.25,1.35-.22,.21-.48-.36-.91-.67-1.31-.04-.05-.08-.09-.12-.13-1.17-1.24-1.89-2.68-1.99-4.41-.03-.51-.06-1.05-.84-1.03-.8,.01-.77,.58-.81,1.07-.11,1.69-.81,3.11-1.95,4.33-.21,.22-.41,.45-.58,.71-.16,.24-.44,.51-.27,.82,.15,.27,.5,.17,.76,.17,.95,.01,1.89,0,2.84,0Zm-14.54-10.78c.09-.63,.05-1.14-.89-1.13-.94,.01-.81,.6-.81,1.17,0,.57-.14,1.16,.81,1.17,.95,.02,.96-.51,.89-1.22Zm30.81,0c.06-.6,.06-1.14-.89-1.13-.93,.02-.81,.59-.82,1.17-.02,.64-.06,1.19,.9,1.18,.94-.02,.82-.59,.8-1.22Zm-15.51,.1c-.05-.53,.17-1.22-.78-1.2-.82,.02-.7,.6-.7,1.1,0,.54-.19,1.22,.77,1.2,.83-.02,.67-.6,.71-1.1Z"/>
        <path class="cls-1" d="M32.09,35.97c1.71,0,3.42,0,5.13,0,.75,0,1.34,.22,1.44,1.07,.08,.74-.37,1.27-1.3,1.32-1.58,.08-3.18,.06-4.76,.07-1.65,0-3.3,0-4.95,0-.37,0-.73-.02-1.1-.06-.77-.09-1.27-.48-1.21-1.31,.06-.8,.6-1.07,1.34-1.07,1.8,0,3.61,0,5.41,0Z"/>
        <path class="cls-1" d="M32,45.88c1.71,0,3.42,0,5.13,0,1.01,0,1.52,.41,1.55,1.17,.03,.79-.51,1.28-1.54,1.29-3.42,.02-6.84,.02-10.26,0-1.04,0-1.58-.5-1.55-1.29,.03-.77,.53-1.17,1.54-1.17,1.71-.01,3.42,0,5.13,0Z"/>
      </g>
      <rect class="cls-2" width="64" height="64"/>
    </g>
  </g>
</svg>