<?xml version="1.0" encoding="UTF-8"?>
<svg id="Capa_2" data-name="Capa 2" xmlns="http://www.w3.org/2000/svg" viewBox="0 0 64 64">
  <defs>
    <style>
      .cls-1 {
        fill: #fff;
      }

      .cls-2 {
        fill: none;
      }
    </style>
  </defs>
  <g id="Capa_1-2" data-name="Capa 1">
    <g>
      <path class="cls-1" d="M18.52,17.97c-1.49-1.48-2.97-2.96-4.46-4.45-.23-.23-.49-.46-.67-.74-.39-.6-.38-1.23,.15-1.74,.5-.48,1.1-.48,1.68-.11,.25,.16,.46,.39,.68,.61,2.02,2.01,4.04,4.02,6.04,6.05,.42,.43,.86,.61,1.46,.61,4.48-.02,8.97-.04,13.45,.01,.9,0,1.24-.24,1.38-1.14,.48-3.16,2.78-5.54,5.89-6.23,4.12-.92,8.24,1.85,9.09,6.12,.79,3.98-2.05,8.06-6.1,8.81-1.17,.21-2.32,.19-3.44-.16-.48-.15-.81-.07-1.18,.29-3.71,3.73-7.43,7.45-11.16,11.16-.34,.33-.5,.69-.5,1.17,.02,2.27,.02,4.54,0,6.81,0,.56,.18,.84,.74,.99,1.15,.3,2.12,.95,2.98,1.75,.4,.38,.8,.76,1.19,1.16,1.02,1.06,2.21,1.72,3.71,1.81,.85,.05,1.39,.67,1.34,1.38-.05,.71-.61,1.22-1.42,1.22-6.59,0-13.18,0-19.77,0-.81,0-1.37-.51-1.43-1.22-.06-.71,.49-1.34,1.34-1.38,1.5-.08,2.69-.75,3.71-1.81,1.27-1.33,2.61-2.57,4.48-3.02,.39-.09,.41-.4,.41-.72,0-2.38,0-4.76,0-7.14,0-.55-.35-.85-.68-1.18-5.26-5.24-10.51-10.47-15.77-15.71-.14-.14-.27-.28-.41-.41-.52-.46-.79-1.02-.52-1.7,.27-.69,.87-.87,1.56-.87,1.77,0,3.54,0,5.32,0,.27,0,.54,0,.81,0,.03-.07,.06-.15,.09-.22Zm24.99,3.02H25.57c-.07,.09-.13,.17-.2,.26,.66,.58,1.35,1.12,1.97,1.74,.38,.38,.73,.46,1.25,.34,1.73-.4,3.26,.25,4.18,1.76,.25,.41,.52,.58,.99,.57,1.52-.02,3.04,0,4.56,0,.28,0,.56,0,.78-.22,1.44-1.45,2.87-2.9,4.4-4.45Zm1.72,2.04c2.84,.46,5.52-2.04,5.46-4.77-.06-2.56-2.07-4.71-4.75-4.91-1.96-.15-4.36,1.12-4.98,3.8-.21,.92-.14,1.03,.77,1.04,1.61,0,3.21,0,4.82,0,.71,0,1.32,.16,1.62,.91,.28,.71-.06,1.23-.54,1.69-.74,.71-1.49,1.4-2.39,2.24Zm-22.34,5.38c.29,.33,.42,.51,.57,.66,1.8,1.8,3.62,3.58,5.39,5.4,.48,.49,.8,.48,1.28,0,1.78-1.82,3.59-3.61,5.38-5.41,.16-.16,.43-.27,.35-.65-.77,0-1.54,0-2.31,0-.35,0-.53,.19-.71,.47-1.74,2.66-4.93,2.69-6.67,.06-.17-.26-.31-.52-.68-.52-.8,0-1.59,0-2.6,0Zm-7.51-7.48c1.54,1.58,2.98,3.06,4.43,4.53,.19,.19,.45,.2,.7,.2,1.58,0,3.15,0,4.73,0,.21,0,.49,.09,.59-.17,.08-.2-.14-.34-.28-.47-1.23-1.23-2.46-2.46-3.7-3.7-.22-.22-.46-.39-.8-.39-1.85,0-3.7,0-5.68,0Zm18.25,29.75c-2.56-3.24-6.19-2.83-8.21,0h8.21Zm-3.02-23.63c.01-.61-.46-1.11-1.07-1.13-.61-.02-1.12,.44-1.15,1.05-.03,.64,.47,1.17,1.11,1.17,.61,0,1.1-.48,1.11-1.09Z"/>
      <rect class="cls-2" width="64" height="64"/>
    </g>
  </g>
</svg>