<?xml version="1.0" encoding="UTF-8"?>
<svg id="Capa_2" data-name="Capa 2" xmlns="http://www.w3.org/2000/svg" viewBox="0 0 64 64">
  <defs>
    <style>
      .cls-1 {
        fill: #fff;
      }

      .cls-2 {
        fill: none;
      }
    </style>
  </defs>
  <g id="Capa_1-2" data-name="Capa 1">
    <g>
      <path class="cls-1" d="M11.85,39.91c0-3.23,0-6.46,0-9.69,0-1.61,.49-2.06,2.11-2.11,1.65-.04,3.19,.18,4.43,1.42,.6,.6,1.04,1.3,1.24,2.12,.13,.53,.38,.73,.94,.76,1.94,.1,3.37,1,4.09,2.85,.17,.44,.44,.61,.9,.6,1.09-.02,2.17,0,3.26,0,1.07-.01,1.69-.64,1.7-1.69,0-1.2-.01-2.4,0-3.6,0-.5-.06-.88-.61-1.08-.46-.17-.68-.58-.77-1.06-.79-4.35-1.85-8.67-2.26-13.07-.39-4.28,3.04-7.58,6.89-7.82,4.46-.29,7.62,2.38,8.28,6.79,.13,.87,0,1.71-.2,2.55-.86,3.76-1.75,7.51-2.62,11.26-.11,.46-.23,.89-.59,1.21-.3,.26-.29,.6-.29,.94,0,1.31,0,2.63,0,3.94,0,.88,.71,1.59,1.61,1.63,1.08,.05,2.17-.03,3.25,.09,4.28,.47,7.33,3.73,7.43,8.01,.04,1.91,.02,3.83,0,5.74-.01,1.37-.5,1.83-1.88,1.83-1.46,0-2.91,0-4.37,0-1.16,0-1.67-.49-1.69-1.67-.02-1.43,0-2.86-.01-4.29-.01-1.17-.57-1.69-1.73-1.77-.9-.06-1.58,.17-2.28,.84-2.43,2.34-6.29,2.23-8.73-.2-.47-.47-.94-.67-1.58-.64-.94,.04-1.89,.03-2.83,0-.47-.01-.7,.17-.88,.61-.76,1.85-2.11,2.87-4.16,2.83-.48,0-.71,.18-.85,.64-.79,2.55-2.32,3.65-5.01,3.65-2.65,0-2.8-.15-2.8-2.81,0-2.94,0-5.89,0-8.83Zm22.33-13c.6,0,1.2-.02,1.8,0,.48,.02,.74-.17,.85-.64,.79-3.45,1.65-6.87,2.35-10.34,.4-1.98-.28-3.7-2-4.84-1.76-1.18-3.63-1.16-5.39-.03-1.69,1.08-2.45,2.72-2.14,4.7,.46,2.93,1.03,5.84,1.58,8.75,.45,2.39,.47,2.39,2.95,2.39Zm.26,16.64c2,0,3.59-1.59,3.6-3.6,0-1.97-1.6-3.55-3.62-3.55-2,0-3.62,1.6-3.62,3.57,0,1.95,1.66,3.58,3.64,3.57Zm-19.78-3.63c0,2.71,.01,5.42,0,8.13,0,.74,.25,.92,.92,.67,.86-.31,1.37-.91,1.4-1.84,.03-.77,.01-1.54,.01-2.31,0-3.79,0-7.59,0-11.38,0-.91-.27-1.63-1.11-2.04-.85-.42-1.22-.2-1.22,.72,0,2.68,0,5.36,0,8.05Zm33.16,5.97c0-.57,0-1.14,0-1.71-.02-3.23-2.26-5.47-5.5-5.49-1.44,0-1.36,0-1.52,1.42-.09,.83,.24,.96,.91,1.04,1.84,.21,3.26,1.52,3.66,3.34,.25,1.13,.14,2.28,.12,3.41-.01,.75,.23,1.06,.98,.96,.2-.03,.4-.02,.6,0,.55,.05,.77-.19,.75-.74-.03-.74,0-1.48,0-2.22Zm-28.01-5.97c0,1.31,0,2.62,0,3.93,0,.35,0,.68,.5,.72,.89,.07,1.77-.56,1.79-1.45,.04-2.16,.04-4.33,0-6.49-.02-.81-.66-1.33-1.46-1.39-.56-.04-.85,.12-.83,.75,.03,1.31,0,2.62,0,3.93Zm15.83-8.25c0-.31-.03-.63,0-.94,.11-.8-.25-1.1-1.02-1.01-.17,.02-.34,.01-.51,0-.58-.04-.83,.22-.81,.81,.02,.65,.05,1.31,0,1.96-.07,.84,.2,1.17,1.09,1.12,1.24-.07,1.25-.01,1.25-1.27,0-.23,0-.46,0-.68Zm-9.1,7.02c-.23,0-.46,.02-.69,0-.73-.09-.93,.25-.91,.94,.03,1.41,0,1.41,1.41,1.41,.4,0,.8,0,1.2-.01,.28,0,.47-.12,.54-.44,.35-1.45,.01-1.9-1.46-1.9-.03,0-.06,0-.09,0Z"/>
      <rect class="cls-2" width="64" height="64"/>
    </g>
  </g>
</svg>