<?xml version="1.0" encoding="UTF-8"?>
<svg id="Capa_2" data-name="Capa 2" xmlns="http://www.w3.org/2000/svg" viewBox="0 0 64 64">
  <defs>
    <style>
      .cls-1 {
        fill: #fff;
      }

      .cls-2 {
        fill: none;
      }
    </style>
  </defs>
  <g id="Capa_1-2" data-name="Capa 1">
    <g>
      <g>
        <path class="cls-1" d="M32,8.61c9-.22,17.84,6.72,18.96,17.04,.49,4.54-.81,8.73-3,12.65-3.26,5.83-7.75,10.63-12.78,14.96-.69,.59-1.4,1.17-2.12,1.72-.68,.53-1.43,.57-2.1,.03-7.04-5.69-13.38-12-16.73-20.64-4.53-11.69,3.31-24.41,15.77-25.76,.66-.07,1.34,0,2,0Zm15.92,18.85c-.04-.58-.06-1.31-.16-2.03-1.59-11.72-15.18-17.68-24.86-10.87-4.52,3.17-6.76,7.64-6.85,13.12-.04,2.86,.86,5.56,2.17,8.11,3.22,6.25,8.01,11.16,13.28,15.68,.39,.34,.66,.26,1.01-.04,4.79-4.08,9.14-8.55,12.35-14.01,1.77-3.02,3.01-6.23,3.06-9.94Z"/>
        <path class="cls-1" d="M31.97,40.8c-1.4,0-2.79,.01-4.19,0-1.06-.01-1.68-.57-1.7-1.49-.02-.96,.61-1.54,1.72-1.56,.67-.01,1.34-.01,2,0,.47,0,.65-.2,.65-.66,0-1.52-.01-3.04,0-4.56,0-.45-.19-.65-.6-.77-3.12-.89-5.47-3.94-5.26-7.64,.1-1.66,0-3.34,.02-5.01,0-1.26,.52-1.78,1.76-1.79,3.74,0,7.47,0,11.21,0,1.23,0,1.74,.54,1.75,1.8,0,1.85,0,3.7,0,5.56,0,3.17-1.86,5.89-4.83,6.91-.84,.29-1.06,.68-1.02,1.5,.06,1.27,.04,2.55,0,3.83-.02,.65,.24,.87,.86,.83,.67-.04,1.34-.03,2,0,.92,.04,1.5,.62,1.52,1.48,.02,.9-.58,1.54-1.53,1.55-1.46,.03-2.92,0-4.37,0Zm.1-20.42c-1.21,0-2.43,0-3.64,0-.46,0-.78,.1-.76,.65,.06,1.45-.12,2.91,.14,4.36,.36,2.04,2.06,3.52,4.12,3.57,2.05,.04,3.85-1.5,4.22-3.57,.25-1.45,.08-2.91,.14-4.36,.02-.55-.3-.65-.76-.65-1.15,.01-2.31,0-3.46,0Z"/>
      </g>
      <rect class="cls-2" width="64" height="64"/>
    </g>
  </g>
</svg>