<?xml version="1.0" encoding="UTF-8"?>
<svg id="Capa_2" data-name="Capa 2" xmlns="http://www.w3.org/2000/svg" viewBox="0 0 64 64">
  <defs>
    <style>
      .cls-1 {
        fill: #fff;
      }

      .cls-2 {
        fill: none;
      }
    </style>
  </defs>
  <g id="Capa_1-2" data-name="Capa 1">
    <g>
      <g>
        <path class="cls-1" d="M13.13,40.88c0-3.37,0-6.75,0-10.12,0-3.01,.99-5.63,3.11-7.78,.63-.63,.93-1.35,.92-2.25-.02-2.23-.01-4.46,0-6.69,0-.48-.07-.82-.59-1.06-.58-.27-.85-.81-.67-1.46,.18-.67,.65-1.01,1.36-1.01,2.65,0,5.3,0,7.95,0,.71,0,1.18,.35,1.35,1.02,.18,.69-.13,1.23-.76,1.5-.46,.19-.53,.48-.53,.91,.01,2.29,0,4.57,0,6.86,0,.83,.3,1.52,.87,2.1,2.2,2.22,3.18,4.88,3.16,8.01-.04,6.89-.01,13.78-.01,20.66,0,1.56-.37,1.93-1.91,1.93-4.13,0-8.25,0-12.38,0-1.45,0-1.87-.43-1.87-1.91,0-3.57,0-7.14,0-10.71Zm2.76-2.2c0,1.14,0,2.28,0,3.43,0,.37,.04,.7,.29,1.02,2.33,2.97,7.56,3.05,10.01,.15,.29-.35,.38-.72,.38-1.16,0-2.26-.01-4.51,0-6.77,0-.55-.2-.95-.57-1.33-2.54-2.6-6.79-2.65-9.42-.12-.47,.45-.73,.93-.7,1.61,.05,1.06,.01,2.12,.01,3.18Zm6.71-21.22s-.04,0-.07,0c0-.86,0-1.73,0-2.59-.02-1.96,.22-1.68-1.75-1.74-.65-.02-.89,.19-.88,.86,.03,2.01-.05,4.02,.03,6.02,.07,2.05-.57,3.73-2.02,5.2-1.36,1.38-2.01,3.12-2.02,5.07,0,.48,.1,.6,.57,.34,3.14-1.76,6.31-1.8,9.47-.05,.58,.32,.64,.11,.63-.41-.02-2.1-.85-3.84-2.29-5.31-.96-.97-1.58-2.1-1.65-3.46-.07-1.31-.01-2.62-.01-3.93Zm-6.7,29.06c0,1.38,0,2.6,0,3.81,0,.4,.22,.53,.59,.53,3.15,0,6.29,0,9.44,0,.41,0,.63-.17,.63-.59,0-1.03,0-2.06,0-3.09,0-.45-.19-.54-.57-.31-.67,.4-1.39,.71-2.15,.91-2.76,.75-5.35,.34-7.94-1.26Z"/>
        <path class="cls-1" d="M34.7,40.74c0-3.52,0-7.03,0-10.55,0-2.66,.94-4.98,2.77-6.89,.9-.94,1.3-1.94,1.26-3.23-.06-2.04-.02-4.07,0-6.11,0-.46-.07-.76-.57-.96-.66-.26-.88-.85-.72-1.52,.15-.65,.62-.98,1.28-.98,2.68,0,5.36,0,8.04,0,.66,0,1.13,.31,1.31,.96,.19,.69-.07,1.23-.7,1.53-.43,.2-.54,.49-.53,.92,.01,2.32,.02,4.63,0,6.95,0,.77,.25,1.42,.79,1.96,2.3,2.3,3.26,5.11,3.25,8.33-.03,6.72,0,13.45,0,20.17,0,1.79-.37,2.15-2.15,2.15-4.1,0-8.2,0-12.31,0-1.3,0-1.7-.4-1.7-1.7,0-3.68,0-7.37,0-11.05Zm13.41-2.01c0-1.14,0-2.29,0-3.43,0-.37-.05-.7-.3-1.01-2.43-2.97-7.52-3.02-10.01-.1-.3,.36-.46,.73-.46,1.21,.02,2.2,.02,4.4,0,6.61,0,.55,.18,.95,.55,1.34,2.58,2.72,6.96,2.77,9.61,.12,.42-.42,.65-.86,.63-1.47-.04-1.09-.01-2.17-.01-3.26Zm-4.02-21.13c0-.95,0-1.9,0-2.84-.02-1.83,.24-1.57-1.68-1.63-.74-.02-.97,.24-.96,.96,.04,2.04,.01,4.07,.01,6.11,0,1.66-.32,3.24-1.56,4.45-1.55,1.52-2.38,3.34-2.52,5.49-.01,.22-.13,.49,.07,.63,.22,.15,.41-.1,.59-.2,3.14-1.72,6.28-1.72,9.41,0,.63,.35,.69,.13,.66-.43-.1-2.04-.85-3.79-2.29-5.24-1.18-1.19-1.78-2.6-1.74-4.29,.03-1,0-2.01,0-3.01Zm4.02,28.94c-.57,.3-.97,.54-1.4,.73-2.98,1.3-5.9,1.18-8.73-.44-.53-.3-.66-.22-.64,.37,.03,1,.02,2,0,3.01,0,.45,.16,.66,.64,.66,3.17,0,6.35,0,9.52,0,.42,0,.62-.16,.61-.59,0-1.19,0-2.39,0-3.72Z"/>
        <path class="cls-1" d="M21.18,40.07c-.47,0-.95,.04-1.42-.01-.73-.08-1.17-.57-1.21-1.28-.04-.69,.35-1.21,1.03-1.34,1.1-.2,2.22-.21,3.31,0,.68,.14,1.06,.64,1.01,1.34-.05,.73-.51,1.18-1.22,1.26-.49,.06-1,.01-1.5,.01Z"/>
        <path class="cls-1" d="M42.79,40.07c-.47,0-.95,.03-1.42,0-.76-.07-1.26-.6-1.3-1.29-.03-.68,.42-1.27,1.18-1.38,.99-.14,2-.13,2.99,0,.74,.1,1.21,.72,1.18,1.39-.03,.67-.57,1.22-1.31,1.28-.44,.04-.89,0-1.33,0,0,0,0,0,0,0Z"/>
      </g>
      <rect class="cls-2" width="64" height="64"/>
    </g>
  </g>
</svg>