<?xml version="1.0" encoding="UTF-8"?>
<svg id="Capa_2" data-name="Capa 2" xmlns="http://www.w3.org/2000/svg" viewBox="0 0 64 64">
  <defs>
    <style>
      .cls-1 {
        fill: #fff;
      }

      .cls-2 {
        fill: none;
      }
    </style>
  </defs>
  <g id="Capa_1-2" data-name="Capa 1">
    <g>
      <g>
        <path class="cls-1" d="M32.35,53.16c-7.03,0-14.07,0-21.1,0-1.19,0-1.2,0-1.2-1.2,0-9.94,0-19.88,0-29.82,0-1.16,.01-1.17,1.16-1.17,.99,0,1.98-.04,2.96,0,.72,.03,.96-.22,.95-.95-.03-3.49-.01-6.97-.01-10.46,0-1.17,0-1.18,1.15-1.18,10.78,0,21.56,0,32.34,0,1.14,0,1.14,0,1.14,1.18,0,3.46,.02,6.92-.02,10.37,0,.81,.25,1.08,1.05,1.03,1.01-.06,2.04,.02,3.05-.02,.76-.03,1,.25,1,1.01-.03,5.26-.01,10.52-.01,15.78,0,4.77-.02,9.53,.02,14.3,0,.88-.25,1.14-1.13,1.13-7.12-.03-14.24-.02-21.36-.02Zm.15-20.06c-1.22,0-2.44,0-3.66,0-5.03,0-10.05,0-15.08,0-.52,0-.97-.04-.97,.73,.02,5.29,.02,10.58,0,15.86,0,.6,.27,.74,.8,.73,.99-.02,1.98-.06,2.96,0,.83,.06,1.03-.27,1.02-1.05-.03-3.78-.02-7.55-.01-11.33,0-1.23,0-1.23,1.18-1.23,2.64,0,5.29,.03,7.93-.02,.88-.02,1.15,.25,1.14,1.14-.04,3.83,0,7.67-.03,11.51,0,.77,.23,.99,.99,.99,7.44-.03,14.88-.03,22.31,0,.84,0,1.02-.28,1.01-1.06-.03-5.06-.04-10.11,0-15.17,0-.88-.23-1.13-1.12-1.13-6.16,.04-12.32,.02-18.48,.02Zm-.05-9.69c4.47,0,8.94-.02,13.41,.02,.81,0,1.05-.26,1.04-1.05-.03-3.43-.03-6.85,0-10.28,0-.78-.27-.98-1.01-.98-8.97,.02-17.94,.02-26.92,0-.76,0-1.01,.23-1,.99,.03,3.4,.04,6.79,0,10.19-.01,.89,.28,1.13,1.15,1.13,4.44-.04,8.89-.02,13.33-.02Zm-.11,6.84c6.16,0,12.31,0,18.47,0q1.27,0,1.27-1.31c0-1.36-.06-2.73,.02-4.09,.05-.94-.39-1.03-1.15-1.02-.76,0-1.27,.04-1.22,1.05,.07,1.41,0,1.42-1.43,1.42-10.54,0-21.08,0-31.62,0-1.72,0-1.6,0-1.55-1.57,.02-.7-.26-.95-.92-.88-.2,.02-.41,.02-.61,0-.6-.05-.83,.2-.82,.8,.03,1.48,0,2.96,0,4.44,0,1.16,0,1.16,1.16,1.16,6.13,0,12.25,0,18.38,0Zm-7.4,14.78c0-1.51-.01-3.01,0-4.52,0-.58-.22-.85-.82-.84-.98,.02-1.97,.01-2.96,0-.5,0-.75,.2-.75,.72,0,3.1,0,6.2,0,9.3,0,.51,.21,.73,.73,.72,.96-.02,1.91-.04,2.87,0,.75,.04,.95-.28,.94-.97-.03-1.48-.01-2.96-.01-4.43Z"/>
        <path class="cls-1" d="M39.43,36.82c2.29,0,4.59,.02,6.88-.01,.73-.01,1.04,.19,1.03,.98-.04,2.64-.04,5.28,0,7.93,.01,.77-.26,1-1.01,1-4.62-.03-9.23-.02-13.85,0-.69,0-.99-.2-.98-.94,.03-2.67,.03-5.34,0-8.01,0-.73,.26-.96,.97-.95,2.32,.03,4.65,.01,6.97,.01Zm.07,2.85c-1.42,0-2.84,.02-4.27,0-.63-.01-.9,.23-.88,.87,.03,.84,.02,1.68,0,2.52-.01,.56,.24,.77,.79,.77,2.84-.01,5.69-.01,8.53,0,.55,0,.8-.21,.79-.77-.02-.84-.02-1.68,0-2.52,.02-.64-.25-.88-.88-.87-1.36,.02-2.73,0-4.09,0Z"/>
      </g>
      <rect class="cls-2" width="64" height="64"/>
    </g>
  </g>
</svg>