<?xml version="1.0" encoding="UTF-8"?>
<svg id="Capa_2" data-name="Capa 2" xmlns="http://www.w3.org/2000/svg" viewBox="0 0 64 64">
  <defs>
    <style>
      .cls-1 {
        fill: #fff;
      }

      .cls-2 {
        fill: none;
      }
    </style>
  </defs>
  <g id="Capa_1-2" data-name="Capa 1">
    <g>
      <path class="cls-1" d="M49.62,42.1c0,3.46-.02,6.91,.01,10.37,0,.76-.23,1.01-1,1-4.4-.03-8.81-.03-13.21,0-.76,0-1.01-.23-1-1,.03-6.02,0-12.04,.04-18.06,0-.87-.27-1.12-1.1-1.07-.97,.06-1.95,.05-2.92,0-.7-.03-.9,.23-.9,.92,.02,5.77,.01,11.54,.01,17.3,0,.28-.03,.56,0,.84,.1,.78-.19,1.1-1.02,1.06-1.2-.06-2.4-.02-3.59-.02-3.2,0-6.41-.02-9.61,0-.71,0-.97-.19-.97-.94,.02-6.99,.02-13.99,0-20.98,0-.76,.29-.95,.99-.94,2.67,.03,5.35-.02,8.03,.03,.79,.01,1.05-.21,1.05-1.03-.03-5.96-.02-11.93-.02-17.89,0-1.18,0-1.18,1.2-1.18,4.29,0,8.58,0,12.87,0,1.09,0,1.09,0,1.09,1.12,0,5.96,.02,11.93-.02,17.89,0,.84,.22,1.11,1.08,1.09,2.65-.05,5.29,0,7.94-.03,.8-.01,1.06,.25,1.05,1.05-.04,3.48-.02,6.97-.02,10.45h0ZM32,25.59c1.39,0,2.79-.02,4.18,0,.57,.01,.79-.19,.78-.78-.02-1.98-.02-3.96,0-5.94,0-.55-.21-.73-.74-.73-2.81,.02-5.63,.02-8.44,0-.53,0-.75,.18-.74,.73,.02,1.98,.02,3.96,0,5.94,0,.59,.21,.79,.78,.78,1.39-.02,2.79,0,4.18,0Zm-10.09,20.21c1.39,0,2.79-.02,4.18,0,.6,.01,.85-.16,.84-.8-.03-1.95-.03-3.9,0-5.85,0-.57-.19-.79-.77-.79-2.79,.02-5.57,.02-8.36,0-.64,0-.8,.26-.8,.85,.03,1.92,.03,3.85,0,5.77,0,.61,.19,.84,.81,.83,1.36-.04,2.73-.01,4.1-.01Zm20.19,0c1.34,0,2.68-.02,4.01,.01,.62,.02,.91-.14,.89-.84-.04-1.92-.03-3.85,0-5.77,0-.6-.18-.84-.81-.84-2.76,.02-5.52,.02-8.28,0-.59,0-.86,.15-.85,.8,.03,1.95,.03,3.9,0,5.85-.01,.65,.27,.8,.85,.79,1.39-.03,2.79,0,4.18,0ZM32,15.54c1.39,0,2.78-.02,4.17,0,.56,.01,.85-.16,.79-.76-.02-.22-.03-.45,0-.67,.11-.79-.24-.99-.99-.98-2.45,.04-4.9,0-7.35,.02-1.73,.01-1.55-.28-1.58,1.62-.01,.59,.22,.78,.79,.77,1.39-.03,2.78,0,4.17,0Zm-9.94,32.9c-1.42,0-2.84,.02-4.26,0-.56-.01-.85,.16-.79,.76,.02,.22,.03,.45,0,.67-.11,.79,.24,.99,.99,.98,2.48-.04,4.95,0,7.43-.02,1.64,0,1.46,.22,1.5-1.54,.02-.67-.23-.87-.87-.85-1.33,.04-2.67,.01-4.01,.01Zm20.07,0c-1.42,0-2.84,.02-4.26,0-.56-.01-.85,.16-.79,.76,.02,.22,.03,.45,0,.67-.11,.79,.24,.99,.99,.98,2.47-.04,4.95,0,7.43-.02,1.64,0,1.46,.22,1.51-1.54,.02-.67-.23-.87-.87-.85-1.33,.04-2.67,.01-4.01,.01Zm-10.17-17.83c1.25,0,2.5,0,3.75,0q1.26,0,1.25-1.29c0-.11,0-.22,0-.33,.03-.47-.2-.64-.65-.64-2.86,0-5.73,0-8.59,0-.51,0-.7,.22-.67,.71,.02,.25,.02,.5,0,.75-.07,.63,.21,.83,.82,.82,1.36-.03,2.72,0,4.09,0Zm-10.07,5.02c1.17,0,2.34,0,3.5,0,1.66,0,1.69-.05,1.55-1.67-.04-.43-.21-.59-.62-.59-2.89,0-5.78,0-8.67,0-.47,0-.65,.22-.62,.67,.01,.25,.03,.5,0,.75-.08,.67,.23,.87,.87,.85,1.33-.03,2.67-.01,4,0Zm20.16,0c1.17,0,2.34,0,3.5,0,1.55,0,1.54,0,1.46-1.59-.02-.44-.15-.67-.63-.67-2.89,0-5.78,0-8.67,0-.41,0-.63,.16-.61,.59,.01,.28,.03,.56,0,.83-.08,.68,.25,.86,.88,.85,1.36-.03,2.72-.01,4.09,0Z"/>
      <rect class="cls-2" width="64" height="64"/>
    </g>
  </g>
</svg>