<?xml version="1.0" encoding="UTF-8"?>
<svg id="Capa_2" data-name="Capa 2" xmlns="http://www.w3.org/2000/svg" viewBox="0 0 64 64">
  <defs>
    <style>
      .cls-1 {
        fill: #fff;
      }

      .cls-2 {
        fill: none;
      }
    </style>
  </defs>
  <g id="Capa_1-2" data-name="Capa 1">
    <g>
      <g>
        <path class="cls-1" d="M22.84,14.18c1.7,0,3.4,0,5.11,0,1.38,0,2.33,.85,2.36,2.08,.03,1.22-.98,2.17-2.37,2.17-2.71,.01-5.42,0-8.13,0q-1,0-1,.97c0,2.73,.01,5.47,0,8.2-.01,1.66-1.39,2.7-2.84,2.19-.82-.29-1.4-1.02-1.4-1.9-.02-3.62-.03-7.24,0-10.86,.01-1.56,1.37-2.83,2.96-2.85,1.77-.02,3.55,0,5.32,0h0Z"/>
        <path class="cls-1" d="M41.24,14.18c1.68,0,3.36,0,5.03,0,1.89,0,3.18,1.27,3.18,3.14,.01,3.43,0,6.86,0,10.28,0,1.36-.89,2.32-2.11,2.33-1.2,0-2.13-.98-2.14-2.33-.02-2.71,0-5.42,0-8.13q0-1.04-1.08-1.05c-2.59,0-5.18,0-7.77,0-.29,0-.58,0-.86-.05-1.08-.2-1.86-1.18-1.79-2.2,.08-1.13,.97-1.99,2.14-2,1.8-.02,3.6,0,5.39,0Z"/>
        <path class="cls-1" d="M22.77,49.1c-1.7,0-3.4,.01-5.11,0-1.83-.01-3.11-1.3-3.12-3.14,0-3.43,0-6.86,0-10.28,0-1.36,.88-2.33,2.11-2.33,1.2,0,2.14,.98,2.15,2.32,.02,2.78,.03,5.56,0,8.34,0,.68,.22,.86,.87,.85,2.66-.03,5.32-.01,7.98-.01,.29,0,.58,0,.86,.05,1.08,.2,1.86,1.18,1.8,2.19-.07,1.13-.96,2-2.14,2.01-1.8,.02-3.6,0-5.39,0Z"/>
        <path class="cls-1" d="M41.13,49.1c-1.7,0-3.4,0-5.11,0-1.36,0-2.32-.89-2.33-2.11,0-1.2,.98-2.13,2.33-2.14,2.73-.02,5.47,0,8.2,0q.97,0,.97-1c0-2.61,0-5.23,0-7.84,0-.29,0-.58,.05-.86,.2-1.08,1.18-1.86,2.2-1.79,1.14,.08,2,.97,2,2.14,.01,3.55,.02,7.1,0,10.64-.01,1.65-1.33,2.95-2.99,2.97-1.77,.02-3.55,0-5.32,0Z"/>
        <path class="cls-1" d="M31.93,33.81c-3.31,0-6.62,0-9.92,0-.73,0-1.45-.07-2-.64-.56-.57-.84-1.23-.61-2.02,.24-.82,.76-1.38,1.61-1.56,.37-.08,.76-.1,1.14-.1,6.57,0,13.14,0,19.71,0,.78,0,1.55,.04,2.14,.64,.56,.56,.84,1.23,.61,2.02-.24,.82-.76,1.39-1.61,1.56-.4,.08-.81,.1-1.21,.11-3.28,0-6.57,0-9.85,0Z"/>
      </g>
      <rect class="cls-2" width="64" height="64"/>
    </g>
  </g>
</svg>