<svg width="174" height="499" viewBox="0 0 174 499" fill="none" xmlns="http://www.w3.org/2000/svg">
<path d="M173.18 222.668L164.874 476.96H164.812L164.437 488.912C164.437 488.912 164.999 496.444 159.691 497.689C153.57 498.125 19.6104 498.125 13.4901 497.689C8.18169 496.444 8.6813 488.912 8.6813 488.912L8.30659 476.96L0.0004474 222.668C0.0004474 222.668 -0.561623 185.069 38.1587 173.989C49.6499 169.133 45.2783 152.637 45.2783 152.637C45.2783 152.637 37.1595 97.2345 64.7634 45.5047C53.8342 35.9182 59.1427 32.8058 59.1427 32.8058V9.3375C59.1427 9.3375 55.0833 0 63.7017 0H80.7511C86.9964 0 92.3048 0 92.3048 0H109.354C117.973 0 113.913 9.3375 113.913 9.3375V32.8058C113.913 32.8058 119.159 35.9182 108.355 45.5047C135.896 97.2967 127.84 152.637 127.84 152.637C127.84 152.637 123.406 169.133 134.96 173.989C173.68 185.069 173.18 222.668 173.18 222.668Z" fill="#505050"/>
</svg>
