<svg width="281" height="49" viewBox="0 0 281 49" fill="none" xmlns="http://www.w3.org/2000/svg">
<rect x="4" width="48" height="48" rx="8" fill="url(#paint0_linear_310_164)"/>
<g clip-path="url(#clip0_310_164)">
<path d="M39.4575 17.227C39.2835 17.362 36.2115 19.093 36.2115 22.942C36.2115 27.394 40.1205 28.969 40.2375 29.008C40.2195 29.104 39.6165 31.165 38.1765 33.265C36.8925 35.113 35.5515 36.958 33.5115 36.958C31.4715 36.958 30.9465 35.773 28.5915 35.773C26.2965 35.773 25.4805 36.997 23.6145 36.997C21.7485 36.997 20.4465 35.287 18.9495 33.187C17.2155 30.721 15.8145 26.89 15.8145 23.254C15.8145 17.422 19.6065 14.329 23.3385 14.329C25.3215 14.329 26.9745 15.631 28.2195 15.631C29.4045 15.631 31.2525 14.251 33.5085 14.251C34.3635 14.251 37.4355 14.329 39.4575 17.227ZM32.4375 11.782C33.3705 10.675 34.0305 9.139 34.0305 7.603C34.0305 7.39 34.0125 7.174 33.9735 7C32.4555 7.057 30.6495 8.011 29.5605 9.274C28.7055 10.246 27.9075 11.782 27.9075 13.339C27.9075 13.573 27.9465 13.807 27.9645 13.882C28.0605 13.9 28.2165 13.921 28.3725 13.921C29.7345 13.921 31.4475 13.009 32.4375 11.782Z" fill="white"/>
</g>
<rect x="68" width="48" height="48" rx="8" fill="url(#paint1_linear_310_164)"/>
<g clip-path="url(#clip1_310_164)">
<path d="M79.5815 18.6892C79.013 18.6892 78.5305 18.8875 78.134 19.2841C77.7374 19.6806 77.5391 20.1565 77.5391 20.7119V29.2395C77.5391 29.8088 77.7373 30.2908 78.134 30.6874C78.5305 31.084 79.013 31.2823 79.5815 31.2823C80.1497 31.2823 80.6292 31.084 81.0196 30.6874C81.4093 30.2908 81.6046 29.8088 81.6046 29.2395V20.7119C81.6046 20.1564 81.4064 19.6806 81.0097 19.2841C80.6131 18.8875 80.1369 18.6892 79.5815 18.6892Z" fill="white"/>
<path d="M96.0028 11.034L97.4108 8.43647C97.5033 8.2645 97.4704 8.13263 97.3119 8.03991C97.1399 7.95995 97.0077 8.00046 96.9153 8.15859L95.4876 10.7769C94.2312 10.2214 92.9025 9.94318 91.5013 9.94318C90.0997 9.94318 88.7708 10.2215 87.515 10.7769L86.0872 8.15859C85.9944 8.00046 85.8622 7.96031 85.6906 8.03991C85.5318 8.13305 85.4989 8.2645 85.5917 8.43647L86.9998 11.034C85.572 11.7621 84.4348 12.7762 83.5887 14.0784C82.7426 15.3814 82.3193 16.8052 82.3193 18.3524H100.663C100.663 16.8056 100.24 15.3817 99.3939 14.0784C98.5477 12.7762 97.4171 11.7621 96.0028 11.034ZM87.8619 14.8121C87.7096 14.9648 87.5278 15.0407 87.3163 15.0407C87.1045 15.0407 86.9263 14.9648 86.781 14.8121C86.6356 14.6602 86.563 14.4791 86.563 14.2669C86.563 14.0555 86.6356 13.874 86.781 13.7217C86.9263 13.5698 87.1049 13.4939 87.3163 13.4939C87.5278 13.4939 87.7096 13.5698 87.8619 13.7217C88.0138 13.8744 88.0901 14.0555 88.0901 14.2669C88.0897 14.4787 88.0135 14.6602 87.8619 14.8121ZM96.2207 14.8121C96.0751 14.9648 95.8965 15.0407 95.6854 15.0407C95.4736 15.0407 95.2917 14.9648 95.1398 14.8121C94.9876 14.6602 94.9116 14.4791 94.9116 14.2669C94.9116 14.0555 94.9876 13.874 95.1398 13.7217C95.2917 13.5698 95.4736 13.4939 95.6854 13.4939C95.8969 13.4939 96.075 13.5698 96.2207 13.7217C96.3662 13.8744 96.4388 14.0555 96.4388 14.2669C96.4388 14.4787 96.3662 14.6602 96.2207 14.8121Z" fill="white"/>
<path d="M82.3975 32.2737C82.3975 32.8825 82.6089 33.3978 83.0317 33.8206C83.455 34.2435 83.9703 34.4549 84.5786 34.4549H86.0462L86.0663 38.9572C86.0663 39.5257 86.2646 40.0085 86.6612 40.4052C87.0578 40.8018 87.534 41.0001 88.089 41.0001C88.6572 41.0001 89.14 40.8018 89.5366 40.4052C89.9332 40.0085 90.1315 39.5258 90.1315 38.9572V34.4553H92.8682V38.9572C92.8682 39.5257 93.0664 40.0085 93.463 40.4052C93.8596 40.8018 94.3419 41.0001 94.9106 41.0001C95.4788 41.0001 95.9615 40.8018 96.3582 40.4052C96.7548 40.0085 96.953 39.5258 96.953 38.9572V34.4553H98.4405C99.0353 34.4553 99.544 34.2439 99.9676 33.821C100.39 33.3981 100.602 32.8828 100.602 32.2741V19.0657H82.3975V32.2737Z" fill="white"/>
<path d="M103.419 18.6892C102.864 18.6892 102.388 18.8846 101.991 19.2742C101.595 19.6646 101.396 20.1441 101.396 20.7119V29.2395C101.396 29.8088 101.595 30.2908 101.991 30.6874C102.388 31.084 102.864 31.2823 103.419 31.2823C103.987 31.2823 104.47 31.084 104.867 30.6874C105.263 30.2908 105.462 29.8088 105.462 29.2395V20.7119C105.462 20.144 105.263 19.6646 104.867 19.2742C104.47 18.8846 103.987 18.6892 103.419 18.6892Z" fill="white"/>
</g>
<rect x="132" width="48" height="48" rx="8" fill="url(#paint2_linear_310_164)"/>
<g clip-path="url(#clip2_310_164)">
<path d="M156 8C147.163 8 140 15.1634 140 24C140 32.8366 147.163 40 156 40C164.837 40 172 32.8366 172 24C172 15.1634 164.837 8 156 8ZM142.051 25H145.482C145.558 26.6603 145.809 28.1793 146.199 29.5435H143.15C142.539 28.1338 142.165 26.603 142.051 25ZM160.936 23C160.861 21.3927 160.67 19.8701 160.412 18.4566H163.69C164.126 19.7982 164.426 21.3111 164.516 23H160.936ZM153.478 29.5435C153.196 27.9851 153.057 26.4639 153.031 25H158.969C158.943 26.4639 158.804 27.9851 158.522 29.5435H153.478ZM158.086 31.5435C157.618 33.3435 156.939 35.1784 156 37.0173C155.061 35.1784 154.382 33.3435 153.914 31.5435H158.086ZM153.059 23C153.138 21.3834 153.342 19.8601 153.614 18.4566H158.386C158.658 19.8601 158.862 21.3834 158.941 23H153.059ZM154.063 16.4566C154.688 14.0168 155.46 12.0919 156 10.9067C156.539 12.0919 157.312 14.0168 157.937 16.4566H154.063ZM159.988 16.4566C159.35 13.8126 158.531 11.6886 157.923 10.3159C158.679 10.8537 161.19 12.8415 162.902 16.4566H159.988ZM154.077 10.3158C153.469 11.6885 152.65 13.8125 152.012 16.4566H149.097C150.81 12.8411 153.321 10.8534 154.077 10.3158ZM151.588 18.4566C151.33 19.8702 151.139 21.3927 151.064 23.0001H147.484C147.574 21.3112 147.873 19.7983 148.31 18.4566H151.588ZM145.484 23H142.051C142.165 21.3971 142.539 19.8664 143.15 18.4566H146.213C145.82 19.8205 145.564 21.3385 145.484 23ZM147.483 25H151.037C151.06 26.4664 151.183 27.9856 151.444 29.5435H148.311C147.871 28.1984 147.57 26.6851 147.483 25ZM151.859 31.5435C152.349 33.58 153.078 35.6613 154.128 37.7511C153.419 37.2439 150.844 35.2184 149.098 31.5435H151.859ZM157.87 37.7556C158.921 35.6643 159.65 33.5815 160.141 31.5435H162.922C161.181 35.2371 158.595 37.2458 157.87 37.7556ZM160.556 29.5435C160.817 27.9856 160.941 26.4664 160.963 25H164.518C164.432 26.6881 164.136 28.2011 163.703 29.5435H160.556ZM166.518 25H169.949C169.835 26.603 169.461 28.1337 168.85 29.5435H165.801C166.19 28.1793 166.441 26.6603 166.518 25ZM166.516 23C166.435 21.3384 166.179 19.8205 165.787 18.4566H168.85C169.461 19.8663 169.835 21.397 169.949 23H166.516ZM167.775 16.4566H165.082C164.188 14.3032 163.022 12.5998 161.926 11.3343C164.325 12.4615 166.352 14.243 167.775 16.4566ZM150.074 11.3345C148.977 12.6 147.812 14.3034 146.918 16.4566H144.225C145.648 14.2431 147.675 12.4618 150.074 11.3345ZM144.225 31.5435H146.901C147.782 33.6749 148.931 35.3727 150.02 36.6396C147.645 35.511 145.637 33.7403 144.225 31.5435ZM161.98 36.6393C163.069 35.3725 164.218 33.6748 165.098 31.5435H167.775C166.363 33.7401 164.356 35.5107 161.98 36.6393Z" fill="white"/>
</g>
<defs>
<linearGradient id="paint0_linear_310_164" x1="28" y1="0" x2="28" y2="48" gradientUnits="userSpaceOnUse">
<stop/>
<stop offset="1" stop-color="#272626"/>
</linearGradient>
<linearGradient id="paint1_linear_310_164" x1="92" y1="0" x2="92" y2="48" gradientUnits="userSpaceOnUse">
<stop/>
<stop offset="1" stop-color="#272626"/>
</linearGradient>
<linearGradient id="paint2_linear_310_164" x1="156" y1="0" x2="156" y2="48" gradientUnits="userSpaceOnUse">
<stop/>
<stop offset="1" stop-color="#272626"/>
</linearGradient>
<clipPath id="clip0_310_164">
<rect width="24.42" height="30" fill="white" transform="translate(15.8145 7)"/>
</clipPath>
<clipPath id="clip1_310_164">
<rect width="33" height="33" fill="white" transform="translate(75 8)"/>
</clipPath>
<clipPath id="clip2_310_164">
<rect width="32" height="32" fill="white" transform="translate(140 8)"/>
</clipPath>
</defs>
</svg>
